<mxfile host="app.diagrams.net" modified="2022-10-07T21:04:59.636Z" agent="5.0 (Windows NT 10.0; Win64; x64) AppleWebKit/537.36 (KHTML, like Gecko) Chrome/106.0.0.0 Safari/537.36" etag="e64tjN6diT5CuMNIMkNO" version="20.4.0" type="github">
  <diagram id="C5RBs43oDa-KdzZeNtuy" name="Page-1">
    <mxGraphModel dx="1497" dy="794" grid="1" gridSize="10" guides="1" tooltips="1" connect="1" arrows="1" fold="1" page="1" pageScale="1" pageWidth="1654" pageHeight="2336" math="0" shadow="0">
      <root>
        <mxCell id="WIyWlLk6GJQsqaUBKTNV-0" />
        <mxCell id="WIyWlLk6GJQsqaUBKTNV-1" parent="WIyWlLk6GJQsqaUBKTNV-0" />
        <mxCell id="WIyWlLk6GJQsqaUBKTNV-2" value="" style="rounded=0;html=1;jettySize=auto;orthogonalLoop=1;fontSize=11;endArrow=block;endFill=0;endSize=8;strokeWidth=1;shadow=0;labelBackgroundColor=none;edgeStyle=orthogonalEdgeStyle;exitX=0.5;exitY=1;exitDx=0;exitDy=0;" parent="WIyWlLk6GJQsqaUBKTNV-1" source="U594rOMJoQbYa-PAkSfv-0" edge="1">
          <mxGeometry relative="1" as="geometry">
            <mxPoint x="100" y="150" as="sourcePoint" />
            <mxPoint x="100" y="180" as="targetPoint" />
          </mxGeometry>
        </mxCell>
        <mxCell id="WIyWlLk6GJQsqaUBKTNV-3" value="Acceso a Pantalla Parámetros y Proceso" style="rounded=1;whiteSpace=wrap;html=1;fontSize=12;glass=0;strokeWidth=1;shadow=0;" parent="WIyWlLk6GJQsqaUBKTNV-1" vertex="1">
          <mxGeometry x="10" y="52" width="180" height="40" as="geometry" />
        </mxCell>
        <mxCell id="WIyWlLk6GJQsqaUBKTNV-4" value="Si" style="rounded=0;html=1;jettySize=auto;orthogonalLoop=1;fontSize=11;endArrow=block;endFill=0;endSize=8;strokeWidth=1;shadow=0;labelBackgroundColor=none;edgeStyle=orthogonalEdgeStyle;entryX=0.5;entryY=0;entryDx=0;entryDy=0;" parent="WIyWlLk6GJQsqaUBKTNV-1" source="WIyWlLk6GJQsqaUBKTNV-6" target="WIyWlLk6GJQsqaUBKTNV-11" edge="1">
          <mxGeometry y="20" relative="1" as="geometry">
            <mxPoint as="offset" />
            <mxPoint x="100" y="310" as="targetPoint" />
          </mxGeometry>
        </mxCell>
        <mxCell id="WIyWlLk6GJQsqaUBKTNV-5" value="No" style="edgeStyle=orthogonalEdgeStyle;rounded=0;html=1;jettySize=auto;orthogonalLoop=1;fontSize=11;endArrow=block;endFill=0;endSize=8;strokeWidth=1;shadow=0;labelBackgroundColor=none;entryX=0;entryY=0.5;entryDx=0;entryDy=0;" parent="WIyWlLk6GJQsqaUBKTNV-1" source="WIyWlLk6GJQsqaUBKTNV-6" target="WIyWlLk6GJQsqaUBKTNV-7" edge="1">
          <mxGeometry y="10" relative="1" as="geometry">
            <mxPoint as="offset" />
            <mxPoint x="200" y="230" as="targetPoint" />
          </mxGeometry>
        </mxCell>
        <mxCell id="WIyWlLk6GJQsqaUBKTNV-6" value="NOC Bono Renta Accesoria&amp;gt;0" style="rhombus;whiteSpace=wrap;html=1;shadow=0;fontFamily=Helvetica;fontSize=12;align=center;strokeWidth=1;spacing=6;spacingTop=-4;" parent="WIyWlLk6GJQsqaUBKTNV-1" vertex="1">
          <mxGeometry x="40" y="180" width="120" height="100" as="geometry" />
        </mxCell>
        <mxCell id="WIyWlLk6GJQsqaUBKTNV-7" value="Mensaje Rechazo" style="rounded=1;whiteSpace=wrap;html=1;fontSize=12;glass=0;strokeWidth=1;shadow=0;" parent="WIyWlLk6GJQsqaUBKTNV-1" vertex="1">
          <mxGeometry x="190" y="210" width="120" height="40" as="geometry" />
        </mxCell>
        <mxCell id="U594rOMJoQbYa-PAkSfv-7" style="edgeStyle=orthogonalEdgeStyle;rounded=0;orthogonalLoop=1;jettySize=auto;html=1;entryX=0.5;entryY=0;entryDx=0;entryDy=0;" edge="1" parent="WIyWlLk6GJQsqaUBKTNV-1" source="WIyWlLk6GJQsqaUBKTNV-11" target="U594rOMJoQbYa-PAkSfv-6">
          <mxGeometry relative="1" as="geometry" />
        </mxCell>
        <mxCell id="WIyWlLk6GJQsqaUBKTNV-11" value="Bono / # meses en rango fechas desde-hasta Proceso 910" style="rounded=1;whiteSpace=wrap;html=1;fontSize=12;glass=0;strokeWidth=1;shadow=0;" parent="WIyWlLk6GJQsqaUBKTNV-1" vertex="1">
          <mxGeometry x="10" y="320" width="180" height="40" as="geometry" />
        </mxCell>
        <mxCell id="U594rOMJoQbYa-PAkSfv-0" value="Parametrización/Ejecución Proceso 910" style="rounded=1;whiteSpace=wrap;html=1;fontSize=12;glass=0;strokeWidth=1;shadow=0;" vertex="1" parent="WIyWlLk6GJQsqaUBKTNV-1">
          <mxGeometry x="10" y="120" width="180" height="40" as="geometry" />
        </mxCell>
        <mxCell id="U594rOMJoQbYa-PAkSfv-1" value="" style="rounded=0;html=1;jettySize=auto;orthogonalLoop=1;fontSize=11;endArrow=block;endFill=0;endSize=8;strokeWidth=1;shadow=0;labelBackgroundColor=none;edgeStyle=orthogonalEdgeStyle;exitX=0.5;exitY=1;exitDx=0;exitDy=0;entryX=0.5;entryY=0;entryDx=0;entryDy=0;" edge="1" parent="WIyWlLk6GJQsqaUBKTNV-1" source="WIyWlLk6GJQsqaUBKTNV-3" target="U594rOMJoQbYa-PAkSfv-0">
          <mxGeometry relative="1" as="geometry">
            <mxPoint x="230" y="80" as="sourcePoint" />
            <mxPoint x="230" y="110" as="targetPoint" />
          </mxGeometry>
        </mxCell>
        <mxCell id="U594rOMJoQbYa-PAkSfv-9" value="" style="edgeStyle=orthogonalEdgeStyle;rounded=0;orthogonalLoop=1;jettySize=auto;html=1;" edge="1" parent="WIyWlLk6GJQsqaUBKTNV-1" source="U594rOMJoQbYa-PAkSfv-6" target="U594rOMJoQbYa-PAkSfv-8">
          <mxGeometry relative="1" as="geometry" />
        </mxCell>
        <mxCell id="U594rOMJoQbYa-PAkSfv-6" value="Recuperación Topes(AFP/AFC) y Valores Legales (UTM/UF) del mes de pago y de cada mes en rango fechas desde-hasta Proceso 910" style="rounded=1;whiteSpace=wrap;html=1;fontSize=12;glass=0;strokeWidth=1;shadow=0;" vertex="1" parent="WIyWlLk6GJQsqaUBKTNV-1">
          <mxGeometry x="10" y="400" width="180" height="80" as="geometry" />
        </mxCell>
        <mxCell id="U594rOMJoQbYa-PAkSfv-21" style="edgeStyle=orthogonalEdgeStyle;rounded=0;orthogonalLoop=1;jettySize=auto;html=1;entryX=0;entryY=0.5;entryDx=0;entryDy=0;" edge="1" parent="WIyWlLk6GJQsqaUBKTNV-1" source="U594rOMJoQbYa-PAkSfv-8" target="U594rOMJoQbYa-PAkSfv-11">
          <mxGeometry relative="1" as="geometry">
            <Array as="points">
              <mxPoint x="320" y="544" />
              <mxPoint x="320" y="240" />
            </Array>
          </mxGeometry>
        </mxCell>
        <mxCell id="U594rOMJoQbYa-PAkSfv-8" value="Recuperación de Ingresos Imponibles, APVI Régimen B Impuesto Único, Aportes (Salud, Pensión, Cesantía) de cada mes en rango fechas desde-hasta Proceso 910" style="rounded=1;whiteSpace=wrap;html=1;fontSize=12;glass=0;strokeWidth=1;shadow=0;" vertex="1" parent="WIyWlLk6GJQsqaUBKTNV-1">
          <mxGeometry x="10" y="504" width="180" height="96" as="geometry" />
        </mxCell>
        <mxCell id="U594rOMJoQbYa-PAkSfv-36" style="edgeStyle=orthogonalEdgeStyle;rounded=0;orthogonalLoop=1;jettySize=auto;html=1;entryX=0;entryY=0.5;entryDx=0;entryDy=0;" edge="1" parent="WIyWlLk6GJQsqaUBKTNV-1" source="U594rOMJoQbYa-PAkSfv-10" target="U594rOMJoQbYa-PAkSfv-35">
          <mxGeometry relative="1" as="geometry" />
        </mxCell>
        <mxCell id="U594rOMJoQbYa-PAkSfv-10" value="Cálculo Cpto 4948.Descuento AFP Renta Accesoria de cada mes en rango de fechas desde-hasta Proceso 910" style="rounded=1;whiteSpace=wrap;html=1;fontSize=12;glass=0;strokeWidth=1;shadow=0;" vertex="1" parent="WIyWlLk6GJQsqaUBKTNV-1">
          <mxGeometry x="590" y="20" width="200" height="60" as="geometry" />
        </mxCell>
        <mxCell id="U594rOMJoQbYa-PAkSfv-19" style="edgeStyle=orthogonalEdgeStyle;rounded=0;orthogonalLoop=1;jettySize=auto;html=1;entryX=0.5;entryY=0;entryDx=0;entryDy=0;" edge="1" parent="WIyWlLk6GJQsqaUBKTNV-1" source="U594rOMJoQbYa-PAkSfv-11" target="U594rOMJoQbYa-PAkSfv-18">
          <mxGeometry relative="1" as="geometry" />
        </mxCell>
        <mxCell id="U594rOMJoQbYa-PAkSfv-28" style="edgeStyle=orthogonalEdgeStyle;rounded=0;orthogonalLoop=1;jettySize=auto;html=1;entryX=0;entryY=0.5;entryDx=0;entryDy=0;" edge="1" parent="WIyWlLk6GJQsqaUBKTNV-1" source="U594rOMJoQbYa-PAkSfv-11" target="U594rOMJoQbYa-PAkSfv-10">
          <mxGeometry relative="1" as="geometry" />
        </mxCell>
        <mxCell id="U594rOMJoQbYa-PAkSfv-30" style="edgeStyle=orthogonalEdgeStyle;rounded=0;orthogonalLoop=1;jettySize=auto;html=1;entryX=0;entryY=0.5;entryDx=0;entryDy=0;" edge="1" parent="WIyWlLk6GJQsqaUBKTNV-1" source="U594rOMJoQbYa-PAkSfv-11" target="U594rOMJoQbYa-PAkSfv-14">
          <mxGeometry relative="1" as="geometry" />
        </mxCell>
        <mxCell id="U594rOMJoQbYa-PAkSfv-31" style="edgeStyle=orthogonalEdgeStyle;rounded=0;orthogonalLoop=1;jettySize=auto;html=1;entryX=0;entryY=0.5;entryDx=0;entryDy=0;" edge="1" parent="WIyWlLk6GJQsqaUBKTNV-1" source="U594rOMJoQbYa-PAkSfv-11" target="U594rOMJoQbYa-PAkSfv-16">
          <mxGeometry relative="1" as="geometry" />
        </mxCell>
        <mxCell id="U594rOMJoQbYa-PAkSfv-11" value="Cálculo Aportes Rentas Accesorias de cada mes en rango de fechas desde-hasta Proceso 910" style="rounded=1;whiteSpace=wrap;html=1;fontSize=12;glass=0;strokeWidth=1;shadow=0;" vertex="1" parent="WIyWlLk6GJQsqaUBKTNV-1">
          <mxGeometry x="336.5" y="210" width="156" height="60" as="geometry" />
        </mxCell>
        <mxCell id="U594rOMJoQbYa-PAkSfv-47" style="edgeStyle=orthogonalEdgeStyle;rounded=0;orthogonalLoop=1;jettySize=auto;html=1;entryX=0;entryY=0.5;entryDx=0;entryDy=0;" edge="1" parent="WIyWlLk6GJQsqaUBKTNV-1" source="U594rOMJoQbYa-PAkSfv-14" target="U594rOMJoQbYa-PAkSfv-45">
          <mxGeometry relative="1" as="geometry" />
        </mxCell>
        <mxCell id="U594rOMJoQbYa-PAkSfv-14" value="Cálculo Cpto 4946. Descuento Salud Renta Accesoria de cada mes en rango de fechas desde-hasta Proceso 910" style="rounded=1;whiteSpace=wrap;html=1;fontSize=12;glass=0;strokeWidth=1;shadow=0;" vertex="1" parent="WIyWlLk6GJQsqaUBKTNV-1">
          <mxGeometry x="590" y="200" width="200" height="65" as="geometry" />
        </mxCell>
        <mxCell id="U594rOMJoQbYa-PAkSfv-57" style="edgeStyle=orthogonalEdgeStyle;rounded=0;orthogonalLoop=1;jettySize=auto;html=1;entryX=0;entryY=0.5;entryDx=0;entryDy=0;" edge="1" parent="WIyWlLk6GJQsqaUBKTNV-1" source="U594rOMJoQbYa-PAkSfv-16" target="U594rOMJoQbYa-PAkSfv-55">
          <mxGeometry relative="1" as="geometry" />
        </mxCell>
        <mxCell id="U594rOMJoQbYa-PAkSfv-16" value="Cálculo Cpto 4949. Seguro Cesantía Renta Accesoria de cada mes en rango de fechas desde-hasta Proceso 910" style="rounded=1;whiteSpace=wrap;html=1;fontSize=12;glass=0;strokeWidth=1;shadow=0;" vertex="1" parent="WIyWlLk6GJQsqaUBKTNV-1">
          <mxGeometry x="590" y="380" width="200" height="70" as="geometry" />
        </mxCell>
        <mxCell id="U594rOMJoQbYa-PAkSfv-67" style="edgeStyle=orthogonalEdgeStyle;rounded=0;orthogonalLoop=1;jettySize=auto;html=1;entryX=0;entryY=0.5;entryDx=0;entryDy=0;" edge="1" parent="WIyWlLk6GJQsqaUBKTNV-1" source="U594rOMJoQbYa-PAkSfv-18" target="U594rOMJoQbYa-PAkSfv-64">
          <mxGeometry relative="1" as="geometry" />
        </mxCell>
        <mxCell id="U594rOMJoQbYa-PAkSfv-73" style="edgeStyle=orthogonalEdgeStyle;rounded=0;orthogonalLoop=1;jettySize=auto;html=1;entryX=0;entryY=0.5;entryDx=0;entryDy=0;exitX=0.5;exitY=1;exitDx=0;exitDy=0;" edge="1" parent="WIyWlLk6GJQsqaUBKTNV-1" source="U594rOMJoQbYa-PAkSfv-63" target="U594rOMJoQbYa-PAkSfv-72">
          <mxGeometry relative="1" as="geometry">
            <Array as="points">
              <mxPoint x="110" y="745" />
              <mxPoint x="560" y="745" />
            </Array>
          </mxGeometry>
        </mxCell>
        <mxCell id="U594rOMJoQbYa-PAkSfv-18" value="Cálculo Impuesto Único Renta Accesoria de cada mes en rango de fechas desde-hasta Proceso 910" style="rounded=1;whiteSpace=wrap;html=1;fontSize=12;glass=0;strokeWidth=1;shadow=0;" vertex="1" parent="WIyWlLk6GJQsqaUBKTNV-1">
          <mxGeometry x="300" y="555" width="230" height="60" as="geometry" />
        </mxCell>
        <mxCell id="U594rOMJoQbYa-PAkSfv-22" value="Guardar fórmula DeltaAFP&lt;br&gt;Guardar fórmula DeltaAFPAcc&lt;br&gt;Valor=0" style="rounded=1;whiteSpace=wrap;html=1;fontSize=12;glass=0;strokeWidth=1;shadow=0;fontStyle=0;fontColor=#0000CC;" vertex="1" parent="WIyWlLk6GJQsqaUBKTNV-1">
          <mxGeometry x="590" y="92" width="200" height="50" as="geometry" />
        </mxCell>
        <mxCell id="U594rOMJoQbYa-PAkSfv-23" value="Guardar fórmula DeltaSalud&lt;br&gt;Guardar fórmula DeltaSaludAcc&lt;br&gt;Valor=0" style="rounded=1;whiteSpace=wrap;html=1;fontSize=12;glass=0;strokeWidth=1;shadow=0;fontStyle=0;fontColor=#0000CC;" vertex="1" parent="WIyWlLk6GJQsqaUBKTNV-1">
          <mxGeometry x="590" y="280" width="200" height="50" as="geometry" />
        </mxCell>
        <mxCell id="U594rOMJoQbYa-PAkSfv-24" value="Guardar fórmula DeltaAFC&lt;br&gt;Guardar fórmula DeltaAFCAcc&lt;br&gt;Valor=0" style="rounded=1;whiteSpace=wrap;html=1;fontSize=12;glass=0;strokeWidth=1;shadow=0;fontStyle=0;fontColor=#0000CC;" vertex="1" parent="WIyWlLk6GJQsqaUBKTNV-1">
          <mxGeometry x="590" y="470" width="200" height="50" as="geometry" />
        </mxCell>
        <mxCell id="U594rOMJoQbYa-PAkSfv-40" value="No" style="edgeStyle=orthogonalEdgeStyle;rounded=0;orthogonalLoop=1;jettySize=auto;html=1;entryX=1;entryY=0.5;entryDx=0;entryDy=0;" edge="1" parent="WIyWlLk6GJQsqaUBKTNV-1" source="U594rOMJoQbYa-PAkSfv-35" target="U594rOMJoQbYa-PAkSfv-22">
          <mxGeometry x="-0.8667" y="15" relative="1" as="geometry">
            <Array as="points">
              <mxPoint x="880" y="120" />
              <mxPoint x="790" y="120" />
            </Array>
            <mxPoint as="offset" />
          </mxGeometry>
        </mxCell>
        <mxCell id="U594rOMJoQbYa-PAkSfv-41" value="Si" style="edgeStyle=orthogonalEdgeStyle;rounded=0;orthogonalLoop=1;jettySize=auto;html=1;entryX=0;entryY=0.5;entryDx=0;entryDy=0;" edge="1" parent="WIyWlLk6GJQsqaUBKTNV-1" source="U594rOMJoQbYa-PAkSfv-35" target="U594rOMJoQbYa-PAkSfv-39">
          <mxGeometry x="-0.7143" y="10" relative="1" as="geometry">
            <mxPoint as="offset" />
          </mxGeometry>
        </mxCell>
        <mxCell id="U594rOMJoQbYa-PAkSfv-35" value="DeltaAFP &amp;lt;=0" style="rhombus;whiteSpace=wrap;html=1;shadow=0;fontFamily=Helvetica;fontSize=12;align=center;strokeWidth=1;spacing=6;spacingTop=-4;" vertex="1" parent="WIyWlLk6GJQsqaUBKTNV-1">
          <mxGeometry x="830" y="20" width="100" height="60" as="geometry" />
        </mxCell>
        <mxCell id="U594rOMJoQbYa-PAkSfv-42" style="edgeStyle=orthogonalEdgeStyle;rounded=0;orthogonalLoop=1;jettySize=auto;html=1;entryX=1;entryY=0.5;entryDx=0;entryDy=0;exitX=0.5;exitY=1;exitDx=0;exitDy=0;" edge="1" parent="WIyWlLk6GJQsqaUBKTNV-1" source="U594rOMJoQbYa-PAkSfv-39" target="U594rOMJoQbYa-PAkSfv-22">
          <mxGeometry relative="1" as="geometry">
            <Array as="points">
              <mxPoint x="1010" y="120" />
              <mxPoint x="790" y="120" />
            </Array>
          </mxGeometry>
        </mxCell>
        <mxCell id="U594rOMJoQbYa-PAkSfv-39" value="DeltaAFP=0" style="rounded=1;whiteSpace=wrap;html=1;fontSize=12;glass=0;strokeWidth=1;shadow=0;" vertex="1" parent="WIyWlLk6GJQsqaUBKTNV-1">
          <mxGeometry x="960" y="35" width="100" height="30" as="geometry" />
        </mxCell>
        <mxCell id="U594rOMJoQbYa-PAkSfv-48" value="Si" style="edgeStyle=orthogonalEdgeStyle;rounded=0;orthogonalLoop=1;jettySize=auto;html=1;entryX=0;entryY=0.5;entryDx=0;entryDy=0;" edge="1" parent="WIyWlLk6GJQsqaUBKTNV-1" source="U594rOMJoQbYa-PAkSfv-45" target="U594rOMJoQbYa-PAkSfv-46">
          <mxGeometry x="-1" y="10" relative="1" as="geometry">
            <mxPoint as="offset" />
          </mxGeometry>
        </mxCell>
        <mxCell id="U594rOMJoQbYa-PAkSfv-51" value="No" style="edgeStyle=orthogonalEdgeStyle;rounded=0;orthogonalLoop=1;jettySize=auto;html=1;entryX=1;entryY=0.5;entryDx=0;entryDy=0;" edge="1" parent="WIyWlLk6GJQsqaUBKTNV-1" source="U594rOMJoQbYa-PAkSfv-45" target="U594rOMJoQbYa-PAkSfv-23">
          <mxGeometry x="-0.871" y="10" relative="1" as="geometry">
            <Array as="points">
              <mxPoint x="880" y="305" />
            </Array>
            <mxPoint as="offset" />
          </mxGeometry>
        </mxCell>
        <mxCell id="U594rOMJoQbYa-PAkSfv-45" value="DeltaSalud &amp;lt;=0" style="rhombus;whiteSpace=wrap;html=1;shadow=0;fontFamily=Helvetica;fontSize=12;align=center;strokeWidth=1;spacing=6;spacingTop=-4;" vertex="1" parent="WIyWlLk6GJQsqaUBKTNV-1">
          <mxGeometry x="830" y="202.5" width="100" height="60" as="geometry" />
        </mxCell>
        <mxCell id="U594rOMJoQbYa-PAkSfv-52" style="edgeStyle=orthogonalEdgeStyle;rounded=0;orthogonalLoop=1;jettySize=auto;html=1;entryX=1;entryY=0.5;entryDx=0;entryDy=0;" edge="1" parent="WIyWlLk6GJQsqaUBKTNV-1" source="U594rOMJoQbYa-PAkSfv-46" target="U594rOMJoQbYa-PAkSfv-23">
          <mxGeometry relative="1" as="geometry">
            <Array as="points">
              <mxPoint x="1000" y="305" />
            </Array>
          </mxGeometry>
        </mxCell>
        <mxCell id="U594rOMJoQbYa-PAkSfv-46" value="DeltaSalud=0" style="rounded=1;whiteSpace=wrap;html=1;fontSize=12;glass=0;strokeWidth=1;shadow=0;" vertex="1" parent="WIyWlLk6GJQsqaUBKTNV-1">
          <mxGeometry x="960" y="217.5" width="100" height="30" as="geometry" />
        </mxCell>
        <mxCell id="U594rOMJoQbYa-PAkSfv-58" value="Si" style="edgeStyle=orthogonalEdgeStyle;rounded=0;orthogonalLoop=1;jettySize=auto;html=1;entryX=0;entryY=0.5;entryDx=0;entryDy=0;" edge="1" parent="WIyWlLk6GJQsqaUBKTNV-1" source="U594rOMJoQbYa-PAkSfv-55" target="U594rOMJoQbYa-PAkSfv-56">
          <mxGeometry x="-1" y="-15" relative="1" as="geometry">
            <mxPoint as="offset" />
          </mxGeometry>
        </mxCell>
        <mxCell id="U594rOMJoQbYa-PAkSfv-60" style="edgeStyle=orthogonalEdgeStyle;rounded=0;orthogonalLoop=1;jettySize=auto;html=1;entryX=1;entryY=0.5;entryDx=0;entryDy=0;" edge="1" parent="WIyWlLk6GJQsqaUBKTNV-1" source="U594rOMJoQbYa-PAkSfv-55" target="U594rOMJoQbYa-PAkSfv-24">
          <mxGeometry relative="1" as="geometry">
            <mxPoint x="790" y="530" as="targetPoint" />
            <Array as="points">
              <mxPoint x="880" y="500" />
              <mxPoint x="790" y="500" />
            </Array>
          </mxGeometry>
        </mxCell>
        <mxCell id="U594rOMJoQbYa-PAkSfv-61" value="No" style="edgeLabel;html=1;align=center;verticalAlign=middle;resizable=0;points=[];" vertex="1" connectable="0" parent="U594rOMJoQbYa-PAkSfv-60">
          <mxGeometry x="-0.8473" y="1" relative="1" as="geometry">
            <mxPoint x="9" as="offset" />
          </mxGeometry>
        </mxCell>
        <mxCell id="U594rOMJoQbYa-PAkSfv-55" value="DeltaAFC &amp;lt;=0" style="rhombus;whiteSpace=wrap;html=1;shadow=0;fontFamily=Helvetica;fontSize=12;align=center;strokeWidth=1;spacing=6;spacingTop=-4;" vertex="1" parent="WIyWlLk6GJQsqaUBKTNV-1">
          <mxGeometry x="830" y="385" width="100" height="60" as="geometry" />
        </mxCell>
        <mxCell id="U594rOMJoQbYa-PAkSfv-59" style="edgeStyle=orthogonalEdgeStyle;rounded=0;orthogonalLoop=1;jettySize=auto;html=1;entryX=1;entryY=0.6;entryDx=0;entryDy=0;entryPerimeter=0;" edge="1" parent="WIyWlLk6GJQsqaUBKTNV-1" source="U594rOMJoQbYa-PAkSfv-56" target="U594rOMJoQbYa-PAkSfv-24">
          <mxGeometry relative="1" as="geometry">
            <Array as="points">
              <mxPoint x="1010" y="500" />
            </Array>
          </mxGeometry>
        </mxCell>
        <mxCell id="U594rOMJoQbYa-PAkSfv-56" value="DeltaAFC=0" style="rounded=1;whiteSpace=wrap;html=1;fontSize=12;glass=0;strokeWidth=1;shadow=0;" vertex="1" parent="WIyWlLk6GJQsqaUBKTNV-1">
          <mxGeometry x="960" y="400" width="100" height="30" as="geometry" />
        </mxCell>
        <mxCell id="U594rOMJoQbYa-PAkSfv-70" style="edgeStyle=orthogonalEdgeStyle;rounded=0;orthogonalLoop=1;jettySize=auto;html=1;entryX=1;entryY=0.5;entryDx=0;entryDy=0;" edge="1" parent="WIyWlLk6GJQsqaUBKTNV-1" source="U594rOMJoQbYa-PAkSfv-62" target="U594rOMJoQbYa-PAkSfv-63">
          <mxGeometry relative="1" as="geometry" />
        </mxCell>
        <mxCell id="U594rOMJoQbYa-PAkSfv-62" value="Guardar Base Imponible Sueldo&lt;br&gt;Guardar Base Imponible Renta Accesoria&lt;br&gt;Guardar Base Tributable Sueldo&lt;br&gt;Guardar Base Tributable Renta Accesoria" style="rounded=1;whiteSpace=wrap;html=1;fontSize=12;glass=0;strokeWidth=1;shadow=0;fontStyle=0;fontColor=#0000CC;" vertex="1" parent="WIyWlLk6GJQsqaUBKTNV-1">
          <mxGeometry x="302.25" y="630" width="225.5" height="70" as="geometry" />
        </mxCell>
        <mxCell id="U594rOMJoQbYa-PAkSfv-63" value="Guardar fórmula DeltaImpuesto&lt;br&gt;Guardar fórmula DeltaImpuestoAcc&lt;br&gt;Valor=0" style="rounded=1;whiteSpace=wrap;html=1;fontSize=12;glass=0;strokeWidth=1;shadow=0;fontStyle=0;fontColor=#0000CC;" vertex="1" parent="WIyWlLk6GJQsqaUBKTNV-1">
          <mxGeometry x="10" y="640" width="200" height="50" as="geometry" />
        </mxCell>
        <mxCell id="U594rOMJoQbYa-PAkSfv-66" value="Si" style="edgeStyle=orthogonalEdgeStyle;rounded=0;orthogonalLoop=1;jettySize=auto;html=1;entryX=0;entryY=0.5;entryDx=0;entryDy=0;" edge="1" parent="WIyWlLk6GJQsqaUBKTNV-1" source="U594rOMJoQbYa-PAkSfv-64" target="U594rOMJoQbYa-PAkSfv-65">
          <mxGeometry x="-0.7778" y="10" relative="1" as="geometry">
            <mxPoint as="offset" />
          </mxGeometry>
        </mxCell>
        <mxCell id="U594rOMJoQbYa-PAkSfv-68" style="edgeStyle=orthogonalEdgeStyle;rounded=0;orthogonalLoop=1;jettySize=auto;html=1;entryX=1;entryY=0.5;entryDx=0;entryDy=0;" edge="1" parent="WIyWlLk6GJQsqaUBKTNV-1" source="U594rOMJoQbYa-PAkSfv-64" target="U594rOMJoQbYa-PAkSfv-62">
          <mxGeometry relative="1" as="geometry">
            <Array as="points">
              <mxPoint x="650" y="665" />
            </Array>
          </mxGeometry>
        </mxCell>
        <mxCell id="U594rOMJoQbYa-PAkSfv-64" value="DeltaImpuesto &amp;lt;=0" style="rhombus;whiteSpace=wrap;html=1;shadow=0;fontFamily=Helvetica;fontSize=12;align=center;strokeWidth=1;spacing=6;spacingTop=-4;" vertex="1" parent="WIyWlLk6GJQsqaUBKTNV-1">
          <mxGeometry x="585" y="555" width="130" height="60" as="geometry" />
        </mxCell>
        <mxCell id="U594rOMJoQbYa-PAkSfv-71" style="edgeStyle=orthogonalEdgeStyle;rounded=0;orthogonalLoop=1;jettySize=auto;html=1;entryX=1;entryY=0.5;entryDx=0;entryDy=0;" edge="1" parent="WIyWlLk6GJQsqaUBKTNV-1" source="U594rOMJoQbYa-PAkSfv-65" target="U594rOMJoQbYa-PAkSfv-62">
          <mxGeometry relative="1" as="geometry">
            <Array as="points">
              <mxPoint x="810" y="665" />
            </Array>
          </mxGeometry>
        </mxCell>
        <mxCell id="U594rOMJoQbYa-PAkSfv-65" value="DeltaImpuesto=0" style="rounded=1;whiteSpace=wrap;html=1;fontSize=12;glass=0;strokeWidth=1;shadow=0;" vertex="1" parent="WIyWlLk6GJQsqaUBKTNV-1">
          <mxGeometry x="760" y="570" width="100" height="30" as="geometry" />
        </mxCell>
        <mxCell id="U594rOMJoQbYa-PAkSfv-78" style="edgeStyle=orthogonalEdgeStyle;rounded=0;orthogonalLoop=1;jettySize=auto;html=1;entryX=0;entryY=0.75;entryDx=0;entryDy=0;" edge="1" parent="WIyWlLk6GJQsqaUBKTNV-1" source="U594rOMJoQbYa-PAkSfv-72" target="U594rOMJoQbYa-PAkSfv-74">
          <mxGeometry relative="1" as="geometry" />
        </mxCell>
        <mxCell id="U594rOMJoQbYa-PAkSfv-79" style="edgeStyle=orthogonalEdgeStyle;rounded=0;orthogonalLoop=1;jettySize=auto;html=1;entryX=0;entryY=0.5;entryDx=0;entryDy=0;" edge="1" parent="WIyWlLk6GJQsqaUBKTNV-1" source="U594rOMJoQbYa-PAkSfv-72" target="U594rOMJoQbYa-PAkSfv-75">
          <mxGeometry relative="1" as="geometry" />
        </mxCell>
        <mxCell id="U594rOMJoQbYa-PAkSfv-80" style="edgeStyle=orthogonalEdgeStyle;rounded=0;orthogonalLoop=1;jettySize=auto;html=1;entryX=0;entryY=0.5;entryDx=0;entryDy=0;" edge="1" parent="WIyWlLk6GJQsqaUBKTNV-1" source="U594rOMJoQbYa-PAkSfv-72" target="U594rOMJoQbYa-PAkSfv-76">
          <mxGeometry relative="1" as="geometry" />
        </mxCell>
        <mxCell id="U594rOMJoQbYa-PAkSfv-81" style="edgeStyle=orthogonalEdgeStyle;rounded=0;orthogonalLoop=1;jettySize=auto;html=1;entryX=0;entryY=0.5;entryDx=0;entryDy=0;" edge="1" parent="WIyWlLk6GJQsqaUBKTNV-1" source="U594rOMJoQbYa-PAkSfv-72" target="U594rOMJoQbYa-PAkSfv-77">
          <mxGeometry relative="1" as="geometry" />
        </mxCell>
        <mxCell id="U594rOMJoQbYa-PAkSfv-72" value="Consolidar Descuentos Renta Accesoria Actualizados" style="rounded=1;whiteSpace=wrap;html=1;fontSize=12;glass=0;strokeWidth=1;shadow=0;" vertex="1" parent="WIyWlLk6GJQsqaUBKTNV-1">
          <mxGeometry x="560" y="716" width="230" height="60" as="geometry" />
        </mxCell>
        <mxCell id="U594rOMJoQbYa-PAkSfv-74" value="Concepto 4943 = Sumatoria DeltaAFPAcc" style="rounded=1;whiteSpace=wrap;html=1;fontSize=12;glass=0;strokeWidth=1;shadow=0;fontStyle=0;fontColor=#0000CC;" vertex="1" parent="WIyWlLk6GJQsqaUBKTNV-1">
          <mxGeometry x="840" y="646" width="240" height="30" as="geometry" />
        </mxCell>
        <mxCell id="U594rOMJoQbYa-PAkSfv-75" value="Concepto 4942 = Sumatoria DeltaSaludAcc" style="rounded=1;whiteSpace=wrap;html=1;fontSize=12;glass=0;strokeWidth=1;shadow=0;fontStyle=0;fontColor=#0000CC;" vertex="1" parent="WIyWlLk6GJQsqaUBKTNV-1">
          <mxGeometry x="840" y="696" width="240" height="30" as="geometry" />
        </mxCell>
        <mxCell id="U594rOMJoQbYa-PAkSfv-76" value="Concepto 4944 = Sumatoria DeltaAFCAcc" style="rounded=1;whiteSpace=wrap;html=1;fontSize=12;glass=0;strokeWidth=1;shadow=0;fontStyle=0;fontColor=#0000CC;" vertex="1" parent="WIyWlLk6GJQsqaUBKTNV-1">
          <mxGeometry x="840" y="746" width="240" height="30" as="geometry" />
        </mxCell>
        <mxCell id="U594rOMJoQbYa-PAkSfv-77" value="Concepto 4945 = Sumatoria DeltaImpuestoAcc" style="rounded=1;whiteSpace=wrap;html=1;fontSize=12;glass=0;strokeWidth=1;shadow=0;fontStyle=0;fontColor=#0000CC;" vertex="1" parent="WIyWlLk6GJQsqaUBKTNV-1">
          <mxGeometry x="840" y="796" width="240" height="30" as="geometry" />
        </mxCell>
        <mxCell id="U594rOMJoQbYa-PAkSfv-100" style="edgeStyle=orthogonalEdgeStyle;rounded=0;orthogonalLoop=1;jettySize=auto;html=1;entryX=0.5;entryY=0;entryDx=0;entryDy=0;fontColor=#0000CC;" edge="1" parent="WIyWlLk6GJQsqaUBKTNV-1" source="U594rOMJoQbYa-PAkSfv-82" target="U594rOMJoQbYa-PAkSfv-85">
          <mxGeometry relative="1" as="geometry" />
        </mxCell>
        <mxCell id="U594rOMJoQbYa-PAkSfv-82" value="Acceso a Pantalla Parámetros de Reportes" style="rounded=1;whiteSpace=wrap;html=1;fontSize=12;glass=0;strokeWidth=1;shadow=0;" vertex="1" parent="WIyWlLk6GJQsqaUBKTNV-1">
          <mxGeometry x="40" y="880" width="180" height="40" as="geometry" />
        </mxCell>
        <mxCell id="U594rOMJoQbYa-PAkSfv-115" value="Si" style="edgeStyle=orthogonalEdgeStyle;rounded=0;orthogonalLoop=1;jettySize=auto;html=1;entryX=0;entryY=0.5;entryDx=0;entryDy=0;fontColor=#0000CC;" edge="1" parent="WIyWlLk6GJQsqaUBKTNV-1" source="U594rOMJoQbYa-PAkSfv-83" target="U594rOMJoQbYa-PAkSfv-113">
          <mxGeometry x="-0.561" y="10" relative="1" as="geometry">
            <mxPoint as="offset" />
          </mxGeometry>
        </mxCell>
        <mxCell id="U594rOMJoQbYa-PAkSfv-122" value="No" style="edgeStyle=orthogonalEdgeStyle;rounded=0;orthogonalLoop=1;jettySize=auto;html=1;entryX=0.5;entryY=1;entryDx=0;entryDy=0;fontColor=#0000FF;" edge="1" parent="WIyWlLk6GJQsqaUBKTNV-1" source="U594rOMJoQbYa-PAkSfv-83" target="U594rOMJoQbYa-PAkSfv-119">
          <mxGeometry relative="1" as="geometry" />
        </mxCell>
        <mxCell id="U594rOMJoQbYa-PAkSfv-83" value="Valor Local &amp;gt;0" style="rhombus;whiteSpace=wrap;html=1;shadow=0;fontFamily=Helvetica;fontSize=12;align=center;strokeWidth=1;spacing=6;spacingTop=-4;" vertex="1" parent="WIyWlLk6GJQsqaUBKTNV-1">
          <mxGeometry x="621" y="1020" width="120" height="40" as="geometry" />
        </mxCell>
        <mxCell id="U594rOMJoQbYa-PAkSfv-101" style="edgeStyle=orthogonalEdgeStyle;rounded=0;orthogonalLoop=1;jettySize=auto;html=1;entryX=0.5;entryY=0;entryDx=0;entryDy=0;fontColor=#0000CC;" edge="1" parent="WIyWlLk6GJQsqaUBKTNV-1" source="U594rOMJoQbYa-PAkSfv-85" target="U594rOMJoQbYa-PAkSfv-86">
          <mxGeometry relative="1" as="geometry" />
        </mxCell>
        <mxCell id="U594rOMJoQbYa-PAkSfv-85" value="Parametrización Reporte 30. Comprobante de Pago con el proceso 910" style="rounded=1;whiteSpace=wrap;html=1;fontSize=12;glass=0;strokeWidth=1;shadow=0;" vertex="1" parent="WIyWlLk6GJQsqaUBKTNV-1">
          <mxGeometry x="40" y="948" width="180" height="40" as="geometry" />
        </mxCell>
        <mxCell id="U594rOMJoQbYa-PAkSfv-105" style="edgeStyle=orthogonalEdgeStyle;rounded=0;orthogonalLoop=1;jettySize=auto;html=1;entryX=0;entryY=0.5;entryDx=0;entryDy=0;fontColor=#0000CC;" edge="1" parent="WIyWlLk6GJQsqaUBKTNV-1" source="U594rOMJoQbYa-PAkSfv-86" target="U594rOMJoQbYa-PAkSfv-103">
          <mxGeometry relative="1" as="geometry" />
        </mxCell>
        <mxCell id="U594rOMJoQbYa-PAkSfv-106" style="edgeStyle=orthogonalEdgeStyle;rounded=0;orthogonalLoop=1;jettySize=auto;html=1;entryX=0;entryY=0.5;entryDx=0;entryDy=0;fontColor=#0000CC;" edge="1" parent="WIyWlLk6GJQsqaUBKTNV-1" source="U594rOMJoQbYa-PAkSfv-86" target="U594rOMJoQbYa-PAkSfv-104">
          <mxGeometry relative="1" as="geometry" />
        </mxCell>
        <mxCell id="U594rOMJoQbYa-PAkSfv-86" value="Generación Reporte 30. Comprobante de Pago" style="rounded=1;whiteSpace=wrap;html=1;fontSize=12;glass=0;strokeWidth=1;shadow=0;" vertex="1" parent="WIyWlLk6GJQsqaUBKTNV-1">
          <mxGeometry x="40" y="1020" width="180" height="40" as="geometry" />
        </mxCell>
        <mxCell id="U594rOMJoQbYa-PAkSfv-94" style="edgeStyle=orthogonalEdgeStyle;rounded=0;orthogonalLoop=1;jettySize=auto;html=1;entryX=0;entryY=0.5;entryDx=0;entryDy=0;fontColor=#0000CC;" edge="1" parent="WIyWlLk6GJQsqaUBKTNV-1" source="U594rOMJoQbYa-PAkSfv-88" target="U594rOMJoQbYa-PAkSfv-93">
          <mxGeometry relative="1" as="geometry" />
        </mxCell>
        <mxCell id="U594rOMJoQbYa-PAkSfv-88" value="Recuperar Valor Concepto NOC Bono Renta Accesoria" style="rounded=1;whiteSpace=wrap;html=1;fontSize=12;glass=0;strokeWidth=1;shadow=0;fontColor=#0000FF;" vertex="1" parent="WIyWlLk6GJQsqaUBKTNV-1">
          <mxGeometry x="421" y="877" width="150" height="40" as="geometry" />
        </mxCell>
        <mxCell id="U594rOMJoQbYa-PAkSfv-95" style="edgeStyle=orthogonalEdgeStyle;rounded=0;orthogonalLoop=1;jettySize=auto;html=1;entryX=0;entryY=0.5;entryDx=0;entryDy=0;fontColor=#0000CC;" edge="1" parent="WIyWlLk6GJQsqaUBKTNV-1" source="U594rOMJoQbYa-PAkSfv-89" target="U594rOMJoQbYa-PAkSfv-83">
          <mxGeometry relative="1" as="geometry" />
        </mxCell>
        <mxCell id="U594rOMJoQbYa-PAkSfv-89" value="Recuperar Valor Concepto 4943. Renta Accesoria AFP" style="rounded=1;whiteSpace=wrap;html=1;fontSize=12;glass=0;strokeWidth=1;shadow=0;fontColor=#0000FF;" vertex="1" parent="WIyWlLk6GJQsqaUBKTNV-1">
          <mxGeometry x="421" y="937" width="150" height="40" as="geometry" />
        </mxCell>
        <mxCell id="U594rOMJoQbYa-PAkSfv-96" style="edgeStyle=orthogonalEdgeStyle;rounded=0;orthogonalLoop=1;jettySize=auto;html=1;entryX=0;entryY=0.5;entryDx=0;entryDy=0;fontColor=#0000CC;" edge="1" parent="WIyWlLk6GJQsqaUBKTNV-1" source="U594rOMJoQbYa-PAkSfv-90" target="U594rOMJoQbYa-PAkSfv-83">
          <mxGeometry relative="1" as="geometry" />
        </mxCell>
        <mxCell id="U594rOMJoQbYa-PAkSfv-90" value="Recuperar Valor Concepto 4942. Renta Accesoria Salud" style="rounded=1;whiteSpace=wrap;html=1;fontSize=12;glass=0;strokeWidth=1;shadow=0;fontColor=#0000FF;" vertex="1" parent="WIyWlLk6GJQsqaUBKTNV-1">
          <mxGeometry x="421" y="997" width="150" height="40" as="geometry" />
        </mxCell>
        <mxCell id="U594rOMJoQbYa-PAkSfv-97" style="edgeStyle=orthogonalEdgeStyle;rounded=0;orthogonalLoop=1;jettySize=auto;html=1;fontColor=#0000CC;" edge="1" parent="WIyWlLk6GJQsqaUBKTNV-1" source="U594rOMJoQbYa-PAkSfv-91" target="U594rOMJoQbYa-PAkSfv-83">
          <mxGeometry relative="1" as="geometry" />
        </mxCell>
        <mxCell id="U594rOMJoQbYa-PAkSfv-91" value="Recuperar Valor Concepto 4944. Renta Accesoria Seguro Cesantia" style="rounded=1;whiteSpace=wrap;html=1;fontSize=12;glass=0;strokeWidth=1;shadow=0;fontColor=#0000FF;" vertex="1" parent="WIyWlLk6GJQsqaUBKTNV-1">
          <mxGeometry x="421" y="1057" width="150" height="40" as="geometry" />
        </mxCell>
        <mxCell id="U594rOMJoQbYa-PAkSfv-99" style="edgeStyle=orthogonalEdgeStyle;rounded=0;orthogonalLoop=1;jettySize=auto;html=1;entryX=0;entryY=0.5;entryDx=0;entryDy=0;fontColor=#0000CC;" edge="1" parent="WIyWlLk6GJQsqaUBKTNV-1" source="U594rOMJoQbYa-PAkSfv-92" target="U594rOMJoQbYa-PAkSfv-83">
          <mxGeometry relative="1" as="geometry" />
        </mxCell>
        <mxCell id="U594rOMJoQbYa-PAkSfv-92" value="Recuperar Valor Concepto 4945. Renta Accesoria Impuesto Único" style="rounded=1;whiteSpace=wrap;html=1;fontSize=12;glass=0;strokeWidth=1;shadow=0;fontColor=#0000FF;" vertex="1" parent="WIyWlLk6GJQsqaUBKTNV-1">
          <mxGeometry x="421" y="1120" width="150" height="40" as="geometry" />
        </mxCell>
        <mxCell id="U594rOMJoQbYa-PAkSfv-114" value="Si" style="edgeStyle=orthogonalEdgeStyle;rounded=0;orthogonalLoop=1;jettySize=auto;html=1;entryX=0;entryY=0.5;entryDx=0;entryDy=0;fontColor=#0000CC;" edge="1" parent="WIyWlLk6GJQsqaUBKTNV-1" source="U594rOMJoQbYa-PAkSfv-93" target="U594rOMJoQbYa-PAkSfv-112">
          <mxGeometry x="-0.561" y="7" relative="1" as="geometry">
            <mxPoint as="offset" />
          </mxGeometry>
        </mxCell>
        <mxCell id="U594rOMJoQbYa-PAkSfv-121" value="No" style="edgeStyle=orthogonalEdgeStyle;rounded=0;orthogonalLoop=1;jettySize=auto;html=1;entryX=0.5;entryY=0;entryDx=0;entryDy=0;fontColor=#0000FF;" edge="1" parent="WIyWlLk6GJQsqaUBKTNV-1" source="U594rOMJoQbYa-PAkSfv-93" target="U594rOMJoQbYa-PAkSfv-119">
          <mxGeometry relative="1" as="geometry" />
        </mxCell>
        <mxCell id="U594rOMJoQbYa-PAkSfv-93" value="Valor Local &amp;gt;0" style="rhombus;whiteSpace=wrap;html=1;shadow=0;fontFamily=Helvetica;fontSize=12;align=center;strokeWidth=1;spacing=6;spacingTop=-4;" vertex="1" parent="WIyWlLk6GJQsqaUBKTNV-1">
          <mxGeometry x="621" y="872" width="120" height="50" as="geometry" />
        </mxCell>
        <mxCell id="U594rOMJoQbYa-PAkSfv-111" style="edgeStyle=orthogonalEdgeStyle;rounded=0;orthogonalLoop=1;jettySize=auto;html=1;entryX=0;entryY=0.5;entryDx=0;entryDy=0;fontColor=#0000CC;" edge="1" parent="WIyWlLk6GJQsqaUBKTNV-1" source="U594rOMJoQbYa-PAkSfv-103" target="U594rOMJoQbYa-PAkSfv-88">
          <mxGeometry relative="1" as="geometry" />
        </mxCell>
        <mxCell id="U594rOMJoQbYa-PAkSfv-103" value="Recuperar Haberes (Pagos)" style="rounded=1;whiteSpace=wrap;html=1;fontSize=12;glass=0;strokeWidth=1;shadow=0;" vertex="1" parent="WIyWlLk6GJQsqaUBKTNV-1">
          <mxGeometry x="260" y="877" width="120" height="40" as="geometry" />
        </mxCell>
        <mxCell id="U594rOMJoQbYa-PAkSfv-107" style="edgeStyle=orthogonalEdgeStyle;rounded=0;orthogonalLoop=1;jettySize=auto;html=1;entryX=0;entryY=0.5;entryDx=0;entryDy=0;fontColor=#0000CC;" edge="1" parent="WIyWlLk6GJQsqaUBKTNV-1" source="U594rOMJoQbYa-PAkSfv-104" target="U594rOMJoQbYa-PAkSfv-89">
          <mxGeometry relative="1" as="geometry" />
        </mxCell>
        <mxCell id="U594rOMJoQbYa-PAkSfv-108" style="edgeStyle=orthogonalEdgeStyle;rounded=0;orthogonalLoop=1;jettySize=auto;html=1;entryX=0;entryY=0.5;entryDx=0;entryDy=0;fontColor=#0000CC;" edge="1" parent="WIyWlLk6GJQsqaUBKTNV-1" source="U594rOMJoQbYa-PAkSfv-104" target="U594rOMJoQbYa-PAkSfv-90">
          <mxGeometry relative="1" as="geometry" />
        </mxCell>
        <mxCell id="U594rOMJoQbYa-PAkSfv-109" style="edgeStyle=orthogonalEdgeStyle;rounded=0;orthogonalLoop=1;jettySize=auto;html=1;entryX=0;entryY=0.5;entryDx=0;entryDy=0;fontColor=#0000CC;" edge="1" parent="WIyWlLk6GJQsqaUBKTNV-1" source="U594rOMJoQbYa-PAkSfv-104" target="U594rOMJoQbYa-PAkSfv-91">
          <mxGeometry relative="1" as="geometry" />
        </mxCell>
        <mxCell id="U594rOMJoQbYa-PAkSfv-110" style="edgeStyle=orthogonalEdgeStyle;rounded=0;orthogonalLoop=1;jettySize=auto;html=1;entryX=0;entryY=0.5;entryDx=0;entryDy=0;fontColor=#0000CC;" edge="1" parent="WIyWlLk6GJQsqaUBKTNV-1" source="U594rOMJoQbYa-PAkSfv-104" target="U594rOMJoQbYa-PAkSfv-92">
          <mxGeometry relative="1" as="geometry" />
        </mxCell>
        <mxCell id="U594rOMJoQbYa-PAkSfv-104" value="Recuperar Descuentos" style="rounded=1;whiteSpace=wrap;html=1;fontSize=12;glass=0;strokeWidth=1;shadow=0;" vertex="1" parent="WIyWlLk6GJQsqaUBKTNV-1">
          <mxGeometry x="260" y="997" width="120" height="40" as="geometry" />
        </mxCell>
        <mxCell id="U594rOMJoQbYa-PAkSfv-118" style="edgeStyle=orthogonalEdgeStyle;rounded=0;orthogonalLoop=1;jettySize=auto;html=1;entryX=0.5;entryY=0;entryDx=0;entryDy=0;fontColor=#0000CC;" edge="1" parent="WIyWlLk6GJQsqaUBKTNV-1" source="U594rOMJoQbYa-PAkSfv-112" target="U594rOMJoQbYa-PAkSfv-116">
          <mxGeometry relative="1" as="geometry" />
        </mxCell>
        <mxCell id="U594rOMJoQbYa-PAkSfv-112" value="Mostrar Concepto y Sumar en Total Haberes" style="rounded=1;whiteSpace=wrap;html=1;fontSize=12;glass=0;strokeWidth=1;shadow=0;" vertex="1" parent="WIyWlLk6GJQsqaUBKTNV-1">
          <mxGeometry x="780" y="877" width="120" height="40" as="geometry" />
        </mxCell>
        <mxCell id="U594rOMJoQbYa-PAkSfv-117" style="edgeStyle=orthogonalEdgeStyle;rounded=0;orthogonalLoop=1;jettySize=auto;html=1;entryX=0.5;entryY=1;entryDx=0;entryDy=0;fontColor=#0000CC;" edge="1" parent="WIyWlLk6GJQsqaUBKTNV-1" source="U594rOMJoQbYa-PAkSfv-113" target="U594rOMJoQbYa-PAkSfv-116">
          <mxGeometry relative="1" as="geometry" />
        </mxCell>
        <mxCell id="U594rOMJoQbYa-PAkSfv-113" value="Mostrar Concepto y Sumar en Total Descuentos" style="rounded=1;whiteSpace=wrap;html=1;fontSize=12;glass=0;strokeWidth=1;shadow=0;" vertex="1" parent="WIyWlLk6GJQsqaUBKTNV-1">
          <mxGeometry x="780" y="1020" width="120" height="40" as="geometry" />
        </mxCell>
        <mxCell id="U594rOMJoQbYa-PAkSfv-116" value="Mostrar Líquido a Pago (Haberes - Descuentos)" style="rounded=1;whiteSpace=wrap;html=1;fontSize=12;glass=0;strokeWidth=1;shadow=0;" vertex="1" parent="WIyWlLk6GJQsqaUBKTNV-1">
          <mxGeometry x="920" y="948" width="130" height="40" as="geometry" />
        </mxCell>
        <mxCell id="U594rOMJoQbYa-PAkSfv-119" value="No mostrar concepto" style="rounded=1;whiteSpace=wrap;html=1;fontSize=12;glass=0;strokeWidth=1;shadow=0;" vertex="1" parent="WIyWlLk6GJQsqaUBKTNV-1">
          <mxGeometry x="616" y="957" width="130" height="22" as="geometry" />
        </mxCell>
        <mxCell id="U594rOMJoQbYa-PAkSfv-131" style="edgeStyle=orthogonalEdgeStyle;rounded=0;orthogonalLoop=1;jettySize=auto;html=1;entryX=0.5;entryY=0;entryDx=0;entryDy=0;fontColor=#0000FF;" edge="1" parent="WIyWlLk6GJQsqaUBKTNV-1" source="U594rOMJoQbYa-PAkSfv-123" target="U594rOMJoQbYa-PAkSfv-125">
          <mxGeometry relative="1" as="geometry" />
        </mxCell>
        <mxCell id="U594rOMJoQbYa-PAkSfv-123" value="Parametrización/Llenado Grupos de Conceptos del reporte 289. Certificado de Renta" style="rounded=1;whiteSpace=wrap;html=1;fontSize=12;glass=0;strokeWidth=1;shadow=0;" vertex="1" parent="WIyWlLk6GJQsqaUBKTNV-1">
          <mxGeometry x="40" y="1240" width="180" height="40" as="geometry" />
        </mxCell>
        <mxCell id="U594rOMJoQbYa-PAkSfv-133" style="edgeStyle=orthogonalEdgeStyle;rounded=0;orthogonalLoop=1;jettySize=auto;html=1;entryX=0.5;entryY=0;entryDx=0;entryDy=0;fontColor=#0000FF;" edge="1" parent="WIyWlLk6GJQsqaUBKTNV-1" source="U594rOMJoQbYa-PAkSfv-124" target="U594rOMJoQbYa-PAkSfv-126">
          <mxGeometry relative="1" as="geometry" />
        </mxCell>
        <mxCell id="U594rOMJoQbYa-PAkSfv-124" value="Parametrización Reporte 289. Certificado de Renta" style="rounded=1;whiteSpace=wrap;html=1;fontSize=12;glass=0;strokeWidth=1;shadow=0;" vertex="1" parent="WIyWlLk6GJQsqaUBKTNV-1">
          <mxGeometry x="40" y="1400" width="180" height="40" as="geometry" />
        </mxCell>
        <mxCell id="U594rOMJoQbYa-PAkSfv-132" style="edgeStyle=orthogonalEdgeStyle;rounded=0;orthogonalLoop=1;jettySize=auto;html=1;entryX=0.5;entryY=0;entryDx=0;entryDy=0;fontColor=#0000FF;" edge="1" parent="WIyWlLk6GJQsqaUBKTNV-1" source="U594rOMJoQbYa-PAkSfv-125" target="U594rOMJoQbYa-PAkSfv-124">
          <mxGeometry relative="1" as="geometry" />
        </mxCell>
        <mxCell id="U594rOMJoQbYa-PAkSfv-125" value="Ejecución Proceso 910" style="rounded=1;whiteSpace=wrap;html=1;fontSize=12;glass=0;strokeWidth=1;shadow=0;" vertex="1" parent="WIyWlLk6GJQsqaUBKTNV-1">
          <mxGeometry x="40" y="1320" width="180" height="40" as="geometry" />
        </mxCell>
        <mxCell id="U594rOMJoQbYa-PAkSfv-134" style="edgeStyle=orthogonalEdgeStyle;rounded=0;orthogonalLoop=1;jettySize=auto;html=1;entryX=0;entryY=0.5;entryDx=0;entryDy=0;fontColor=#0000FF;" edge="1" parent="WIyWlLk6GJQsqaUBKTNV-1" source="U594rOMJoQbYa-PAkSfv-126" target="U594rOMJoQbYa-PAkSfv-127">
          <mxGeometry relative="1" as="geometry" />
        </mxCell>
        <mxCell id="U594rOMJoQbYa-PAkSfv-126" value="Generación Reporte 289. Certificado de Renta" style="rounded=1;whiteSpace=wrap;html=1;fontSize=12;glass=0;strokeWidth=1;shadow=0;" vertex="1" parent="WIyWlLk6GJQsqaUBKTNV-1">
          <mxGeometry x="40" y="1480" width="180" height="40" as="geometry" />
        </mxCell>
        <mxCell id="U594rOMJoQbYa-PAkSfv-135" style="edgeStyle=orthogonalEdgeStyle;rounded=0;orthogonalLoop=1;jettySize=auto;html=1;entryX=0;entryY=0.5;entryDx=0;entryDy=0;fontColor=#0000FF;" edge="1" parent="WIyWlLk6GJQsqaUBKTNV-1" source="U594rOMJoQbYa-PAkSfv-127" target="U594rOMJoQbYa-PAkSfv-128">
          <mxGeometry relative="1" as="geometry" />
        </mxCell>
        <mxCell id="U594rOMJoQbYa-PAkSfv-136" style="edgeStyle=orthogonalEdgeStyle;rounded=0;orthogonalLoop=1;jettySize=auto;html=1;entryX=0;entryY=0.5;entryDx=0;entryDy=0;fontColor=#0000FF;" edge="1" parent="WIyWlLk6GJQsqaUBKTNV-1" source="U594rOMJoQbYa-PAkSfv-127" target="U594rOMJoQbYa-PAkSfv-129">
          <mxGeometry relative="1" as="geometry" />
        </mxCell>
        <mxCell id="U594rOMJoQbYa-PAkSfv-137" style="edgeStyle=orthogonalEdgeStyle;rounded=0;orthogonalLoop=1;jettySize=auto;html=1;entryX=0;entryY=0.5;entryDx=0;entryDy=0;fontColor=#0000FF;" edge="1" parent="WIyWlLk6GJQsqaUBKTNV-1" source="U594rOMJoQbYa-PAkSfv-127" target="U594rOMJoQbYa-PAkSfv-130">
          <mxGeometry relative="1" as="geometry" />
        </mxCell>
        <mxCell id="U594rOMJoQbYa-PAkSfv-127" value="Llenado Columnas Reporte" style="rounded=1;whiteSpace=wrap;html=1;fontSize=12;glass=0;strokeWidth=1;shadow=0;" vertex="1" parent="WIyWlLk6GJQsqaUBKTNV-1">
          <mxGeometry x="280" y="1480" width="180" height="40" as="geometry" />
        </mxCell>
        <mxCell id="U594rOMJoQbYa-PAkSfv-128" value="&lt;b&gt;Columna Sueldo Bruto:&lt;/b&gt;&amp;nbsp;&lt;br&gt;Imponible Sueldo (Grupo 604) + Imponible Renta Accesoria sin actualizar de cada mes causación" style="rounded=1;whiteSpace=wrap;html=1;fontSize=12;glass=0;strokeWidth=1;shadow=0;" vertex="1" parent="WIyWlLk6GJQsqaUBKTNV-1">
          <mxGeometry x="535" y="1230" width="215" height="60" as="geometry" />
        </mxCell>
        <mxCell id="U594rOMJoQbYa-PAkSfv-129" value="&lt;b&gt;Columna Cotización Previsional:&lt;/b&gt;&amp;nbsp;&lt;br&gt;Deducibles Salud, AFP,AFC, APVI (Grupo 686) + Fórmula Deducibles Rentas Accesorias de cada mes causación" style="rounded=1;whiteSpace=wrap;html=1;fontSize=12;glass=0;strokeWidth=1;shadow=0;" vertex="1" parent="WIyWlLk6GJQsqaUBKTNV-1">
          <mxGeometry x="535" y="1330" width="215" height="80" as="geometry" />
        </mxCell>
        <mxCell id="U594rOMJoQbYa-PAkSfv-130" value="&lt;b&gt;Columna Impuesto Único Retenido:&lt;/b&gt;&lt;br&gt;Impuesto Único Sueldo (Grupo 700) + Impuesto Único Renta Accesoria sin actualizar de cada mes causación&amp;nbsp;" style="rounded=1;whiteSpace=wrap;html=1;fontSize=12;glass=0;strokeWidth=1;shadow=0;" vertex="1" parent="WIyWlLk6GJQsqaUBKTNV-1">
          <mxGeometry x="535" y="1430" width="215" height="70" as="geometry" />
        </mxCell>
        <mxCell id="U594rOMJoQbYa-PAkSfv-138" style="edgeStyle=orthogonalEdgeStyle;rounded=0;orthogonalLoop=1;jettySize=auto;html=1;entryX=0.5;entryY=0;entryDx=0;entryDy=0;fontColor=#0000FF;" edge="1" parent="WIyWlLk6GJQsqaUBKTNV-1" source="U594rOMJoQbYa-PAkSfv-139" target="U594rOMJoQbYa-PAkSfv-143">
          <mxGeometry relative="1" as="geometry" />
        </mxCell>
        <mxCell id="U594rOMJoQbYa-PAkSfv-139" value="Parametrización/Llenado Grupos de Conceptos del reporte 636. Declaración Jurada Simple" style="rounded=1;whiteSpace=wrap;html=1;fontSize=12;glass=0;strokeWidth=1;shadow=0;" vertex="1" parent="WIyWlLk6GJQsqaUBKTNV-1">
          <mxGeometry x="40" y="1610" width="180" height="40" as="geometry" />
        </mxCell>
        <mxCell id="U594rOMJoQbYa-PAkSfv-141" value="Parametrización Reporte 636. Declaración Jurada Simple" style="rounded=1;whiteSpace=wrap;html=1;fontSize=12;glass=0;strokeWidth=1;shadow=0;" vertex="1" parent="WIyWlLk6GJQsqaUBKTNV-1">
          <mxGeometry x="40" y="1840" width="180" height="40" as="geometry" />
        </mxCell>
        <mxCell id="U594rOMJoQbYa-PAkSfv-142" style="edgeStyle=orthogonalEdgeStyle;rounded=0;orthogonalLoop=1;jettySize=auto;html=1;fontColor=#0000FF;entryX=0.5;entryY=0;entryDx=0;entryDy=0;" edge="1" parent="WIyWlLk6GJQsqaUBKTNV-1" source="U594rOMJoQbYa-PAkSfv-143" target="U594rOMJoQbYa-PAkSfv-153">
          <mxGeometry relative="1" as="geometry">
            <mxPoint x="130" y="1760" as="targetPoint" />
          </mxGeometry>
        </mxCell>
        <mxCell id="U594rOMJoQbYa-PAkSfv-143" value="Ejecución Proceso 910" style="rounded=1;whiteSpace=wrap;html=1;fontSize=12;glass=0;strokeWidth=1;shadow=0;" vertex="1" parent="WIyWlLk6GJQsqaUBKTNV-1">
          <mxGeometry x="40" y="1690" width="180" height="40" as="geometry" />
        </mxCell>
        <mxCell id="U594rOMJoQbYa-PAkSfv-144" style="edgeStyle=orthogonalEdgeStyle;rounded=0;orthogonalLoop=1;jettySize=auto;html=1;entryX=0;entryY=0.5;entryDx=0;entryDy=0;fontColor=#0000FF;" edge="1" parent="WIyWlLk6GJQsqaUBKTNV-1" source="U594rOMJoQbYa-PAkSfv-145" target="U594rOMJoQbYa-PAkSfv-149">
          <mxGeometry relative="1" as="geometry" />
        </mxCell>
        <mxCell id="U594rOMJoQbYa-PAkSfv-145" value="Generación Reporte 636. Declaración Jurada Simple" style="rounded=1;whiteSpace=wrap;html=1;fontSize=12;glass=0;strokeWidth=1;shadow=0;" vertex="1" parent="WIyWlLk6GJQsqaUBKTNV-1">
          <mxGeometry x="40" y="1913" width="180" height="40" as="geometry" />
        </mxCell>
        <mxCell id="U594rOMJoQbYa-PAkSfv-146" style="edgeStyle=orthogonalEdgeStyle;rounded=0;orthogonalLoop=1;jettySize=auto;html=1;entryX=0;entryY=0.5;entryDx=0;entryDy=0;fontColor=#0000FF;" edge="1" parent="WIyWlLk6GJQsqaUBKTNV-1" source="U594rOMJoQbYa-PAkSfv-149" target="U594rOMJoQbYa-PAkSfv-150">
          <mxGeometry relative="1" as="geometry" />
        </mxCell>
        <mxCell id="U594rOMJoQbYa-PAkSfv-147" style="edgeStyle=orthogonalEdgeStyle;rounded=0;orthogonalLoop=1;jettySize=auto;html=1;entryX=0;entryY=0.5;entryDx=0;entryDy=0;fontColor=#0000FF;" edge="1" parent="WIyWlLk6GJQsqaUBKTNV-1" source="U594rOMJoQbYa-PAkSfv-149" target="U594rOMJoQbYa-PAkSfv-151">
          <mxGeometry relative="1" as="geometry" />
        </mxCell>
        <mxCell id="U594rOMJoQbYa-PAkSfv-148" style="edgeStyle=orthogonalEdgeStyle;rounded=0;orthogonalLoop=1;jettySize=auto;html=1;entryX=0;entryY=0.5;entryDx=0;entryDy=0;fontColor=#0000FF;" edge="1" parent="WIyWlLk6GJQsqaUBKTNV-1" source="U594rOMJoQbYa-PAkSfv-149" target="U594rOMJoQbYa-PAkSfv-152">
          <mxGeometry relative="1" as="geometry" />
        </mxCell>
        <mxCell id="U594rOMJoQbYa-PAkSfv-149" value="Llenado Columnas Reporte" style="rounded=1;whiteSpace=wrap;html=1;fontSize=12;glass=0;strokeWidth=1;shadow=0;" vertex="1" parent="WIyWlLk6GJQsqaUBKTNV-1">
          <mxGeometry x="280" y="1913" width="180" height="40" as="geometry" />
        </mxCell>
        <mxCell id="U594rOMJoQbYa-PAkSfv-150" value="&lt;b&gt;Renta Total Neta Pagada&amp;nbsp; (Art.42 N°1, LIR&amp;nbsp; Ley de la Renta):&lt;/b&gt;&amp;nbsp;&lt;br&gt;Traerlo del Cert de Renta, 1ra Columna Actualizada (Renta Afecta al Impto 2da Categoria)" style="rounded=1;whiteSpace=wrap;html=1;fontSize=12;glass=0;strokeWidth=1;shadow=0;" vertex="1" parent="WIyWlLk6GJQsqaUBKTNV-1">
          <mxGeometry x="535" y="1650" width="215" height="73" as="geometry" />
        </mxCell>
        <mxCell id="U594rOMJoQbYa-PAkSfv-151" value="&lt;b&gt;IMPUESTO UNICO DE SEGUNDA CATEGORÍA RETENIDO:&lt;/b&gt;&amp;nbsp;&lt;br&gt;Traerlo del Cert de Renta, 2da Columna Actualizada (Impto 2da Categoria)" style="rounded=1;whiteSpace=wrap;html=1;fontSize=12;glass=0;strokeWidth=1;shadow=0;" vertex="1" parent="WIyWlLk6GJQsqaUBKTNV-1">
          <mxGeometry x="535" y="1750" width="215" height="93" as="geometry" />
        </mxCell>
        <mxCell id="U594rOMJoQbYa-PAkSfv-152" value="&lt;b&gt;Total Monto Ingreso Mensual (Sin Actualizar):&lt;/b&gt;&lt;br&gt;Base Tributable Sueldo del Mes + Base Tributable RA (Sin Actualizar)" style="rounded=1;whiteSpace=wrap;html=1;fontSize=12;glass=0;strokeWidth=1;shadow=0;" vertex="1" parent="WIyWlLk6GJQsqaUBKTNV-1">
          <mxGeometry x="535" y="1863" width="215" height="70" as="geometry" />
        </mxCell>
        <mxCell id="U594rOMJoQbYa-PAkSfv-154" style="edgeStyle=orthogonalEdgeStyle;rounded=0;orthogonalLoop=1;jettySize=auto;html=1;entryX=0.5;entryY=0;entryDx=0;entryDy=0;fontColor=#0000FF;" edge="1" parent="WIyWlLk6GJQsqaUBKTNV-1" source="U594rOMJoQbYa-PAkSfv-153" target="U594rOMJoQbYa-PAkSfv-141">
          <mxGeometry relative="1" as="geometry" />
        </mxCell>
        <mxCell id="U594rOMJoQbYa-PAkSfv-153" value="Generación Reporte 289. Certificado de Renta" style="rounded=1;whiteSpace=wrap;html=1;fontSize=12;glass=0;strokeWidth=1;shadow=0;" vertex="1" parent="WIyWlLk6GJQsqaUBKTNV-1">
          <mxGeometry x="40" y="1770" width="180" height="40" as="geometry" />
        </mxCell>
      </root>
    </mxGraphModel>
  </diagram>
</mxfile>
